# xmcd
#
# Track frame offsets:
# 150
# 11362
# 20437
# 32362
# 40012
# 50212
# 60112
# 72112
# 83287
# 110887
# 121387
# 134300
# 143362
# 153637
# 162187
# 175837
#
# Disc length: 2569 seconds
#
#
# Revision: 1
# Processed by: cddbd v1.5.1PL2 Copyright (c) Steve Scherf et al.
# Submitted via: FreeRIP 2.60 
#
DISCID=bf0a0710
DTITLE=Howard Morrison Quartet - 16 Great Hits
DYEAR=1989
DGENRE=Comedy
TTITLE0=Battle of the Waikato
TTITLE1=Po Kare Kare Ana
TTITLE2=There's only one of you
TTITLE3=Short Fat Fanny
TTITLE4=Marama Pai
TTITLE5=Little Darlin'
TTITLE6=Deep Purple
TTITLE7=Marie
TTITLE8=Granada
TTITLE9=Haere Ra E Hine
TTITLE10=Tumbling Tumble Weeds
TTITLE11=Only My Word of Honour
TTITLE12=Diana
TTITLE13=You Lied
TTITLE14=Glory of Love
TTITLE15=Hoki Mai/Hawaiian Cowboy
EXTD=RCA Victor VPCD0818
EXTT0=
EXTT1=
EXTT2=
EXTT3=
EXTT4=
EXTT5=
EXTT6=
EXTT7=
EXTT8=
EXTT9=
EXTT10=
EXTT11=
EXTT12=
EXTT13=
EXTT14=
EXTT15=
PLAYORDER=
